<?xml version="1.0"?>
<mxfile host="www.draw.io" modified="2020-07-24T11:26:03.176Z" agent="5.0 (X11; Linux x86_64) AppleWebKit/537.36 (KHTML, like Gecko) Chrome/84.0.4147.89 Safari/537.36" etag="SOhUuvMCLRJLDeu5lSW0" version="13.5.1" pages="6">
  <diagram name="Cluster Motivation Simple" id="oRy2fNzNdOa_L62ZQWTx">
    <mxGraphModel dx="2" dy="1" grid="1" gridSize="10" guides="1" tooltips="1" connect="1" arrows="1" fold="1" page="1" pageScale="1" pageWidth="827" pageHeight="1169" math="1" shadow="0">
      <root>
        <mxCell id="G-pxlVZhkgJDdegGtomH-0"/>
        <mxCell id="G-pxlVZhkgJDdegGtomH-1" parent="G-pxlVZhkgJDdegGtomH-0"/>
        <mxCell id="G-pxlVZhkgJDdegGtomH-5" value="" style="endArrow=none;html=1;strokeColor=#9673a6;strokeWidth=12;fillColor=#e1d5e7;" parent="G-pxlVZhkgJDdegGtomH-1" edge="1">
          <mxGeometry width="50" height="50" relative="1" as="geometry">
            <mxPoint x="534.9" y="440" as="sourcePoint"/>
            <mxPoint x="534.9" y="240" as="targetPoint"/>
          </mxGeometry>
        </mxCell>
        <mxCell id="G-pxlVZhkgJDdegGtomH-10" value="" style="endArrow=none;html=1;strokeWidth=12;strokeColor=#d6b656;fillColor=#fff2cc;" parent="G-pxlVZhkgJDdegGtomH-1" source="G-pxlVZhkgJDdegGtomH-22" edge="1">
          <mxGeometry width="50" height="50" relative="1" as="geometry">
            <mxPoint x="243.54999999999998" y="260" as="sourcePoint"/>
            <mxPoint x="534.9" y="240" as="targetPoint"/>
          </mxGeometry>
        </mxCell>
        <mxCell id="G-pxlVZhkgJDdegGtomH-8" value="" style="endArrow=none;html=1;strokeWidth=12;strokeColor=#b85450;exitX=1;exitY=0.5;exitDx=0;exitDy=0;fillColor=#f8cecc;dashed=1;dashPattern=1 1;" parent="G-pxlVZhkgJDdegGtomH-1" edge="1">
          <mxGeometry width="50" height="50" relative="1" as="geometry">
            <mxPoint x="224.9" y="250" as="sourcePoint"/>
            <mxPoint x="534.9" y="240" as="targetPoint"/>
          </mxGeometry>
        </mxCell>
        <mxCell id="G-pxlVZhkgJDdegGtomH-11" value="" style="endArrow=none;html=1;strokeColor=#d6b656;strokeWidth=12;fillColor=#fff2cc;" parent="G-pxlVZhkgJDdegGtomH-1" source="G-pxlVZhkgJDdegGtomH-30" edge="1">
          <mxGeometry width="50" height="50" relative="1" as="geometry">
            <mxPoint x="664.9032643010253" y="185.0233416917851" as="sourcePoint"/>
            <mxPoint x="534.9" y="240" as="targetPoint"/>
          </mxGeometry>
        </mxCell>
        <mxCell id="G-pxlVZhkgJDdegGtomH-9" value="" style="endArrow=none;html=1;strokeColor=#b85450;strokeWidth=12;fillColor=#f8cecc;dashed=1;dashPattern=1 1;" parent="G-pxlVZhkgJDdegGtomH-1" source="G-pxlVZhkgJDdegGtomH-30" edge="1">
          <mxGeometry width="50" height="50" relative="1" as="geometry">
            <mxPoint x="646.2532643010253" y="175.0233416917851" as="sourcePoint"/>
            <mxPoint x="534.9" y="240" as="targetPoint"/>
          </mxGeometry>
        </mxCell>
        <mxCell id="G-pxlVZhkgJDdegGtomH-3" value="" style="verticalLabelPosition=bottom;verticalAlign=top;html=1;shape=mxgraph.basic.arc;startAngle=0.2468173254495136;endAngle=0.24522678332873485;strokeColor=#B3B3B3;strokeWidth=3;fillColor=none;rotation=90;" parent="G-pxlVZhkgJDdegGtomH-1" vertex="1">
          <mxGeometry x="104.9" y="189.79" width="120" height="120" as="geometry"/>
        </mxCell>
        <mxCell id="G-pxlVZhkgJDdegGtomH-2" value="" style="verticalLabelPosition=bottom;verticalAlign=top;html=1;shape=mxgraph.basic.arc;startAngle=0.25;endAngle=0.006492516275343945;strokeColor=#b85450;strokeWidth=12;fillColor=#f8cecc;rotation=90;" parent="G-pxlVZhkgJDdegGtomH-1" vertex="1">
          <mxGeometry x="104.9" y="189.79" width="120" height="120" as="geometry"/>
        </mxCell>
        <mxCell id="G-pxlVZhkgJDdegGtomH-6" value="" style="endArrow=none;html=1;strokeColor=#9673a6;strokeWidth=12;fillColor=#e1d5e7;" parent="G-pxlVZhkgJDdegGtomH-1" edge="1">
          <mxGeometry width="50" height="50" relative="1" as="geometry">
            <mxPoint x="533.9" y="440" as="sourcePoint"/>
            <mxPoint x="253.9" y="440" as="targetPoint"/>
          </mxGeometry>
        </mxCell>
        <mxCell id="G-pxlVZhkgJDdegGtomH-7" value="" style="endArrow=none;html=1;strokeColor=#9673a6;strokeWidth=12;fillColor=#e1d5e7;" parent="G-pxlVZhkgJDdegGtomH-1" target="G-pxlVZhkgJDdegGtomH-27" edge="1">
          <mxGeometry width="50" height="50" relative="1" as="geometry">
            <mxPoint x="254.9" y="440" as="sourcePoint"/>
            <mxPoint x="188.4860467663299" y="331.05245038248233" as="targetPoint"/>
          </mxGeometry>
        </mxCell>
        <mxCell id="G-pxlVZhkgJDdegGtomH-12" value="" style="ellipse;whiteSpace=wrap;html=1;aspect=fixed;fillColor=none;" parent="G-pxlVZhkgJDdegGtomH-1" vertex="1">
          <mxGeometry x="549.9" y="74.79" width="250" height="250" as="geometry"/>
        </mxCell>
        <mxCell id="G-pxlVZhkgJDdegGtomH-13" value="" style="ellipse;whiteSpace=wrap;html=1;aspect=fixed;fillColor=none;" parent="G-pxlVZhkgJDdegGtomH-1" vertex="1">
          <mxGeometry x="40.00000000000001" y="214.9" width="249.79" height="249.79" as="geometry"/>
        </mxCell>
        <mxCell id="G-pxlVZhkgJDdegGtomH-18" value="" style="endArrow=none;html=1;strokeColor=#B3B3B3;strokeWidth=3;entryX=0.962;entryY=0.332;entryDx=0;entryDy=0;entryPerimeter=0;" parent="G-pxlVZhkgJDdegGtomH-1" source="G-pxlVZhkgJDdegGtomH-27" target="G-pxlVZhkgJDdegGtomH-3" edge="1">
          <mxGeometry width="50" height="50" relative="1" as="geometry">
            <mxPoint x="254.9" y="440" as="sourcePoint"/>
            <mxPoint x="184.09999999999994" y="306.4" as="targetPoint"/>
          </mxGeometry>
        </mxCell>
        <mxCell id="G-pxlVZhkgJDdegGtomH-19" value="" style="endArrow=none;html=1;strokeColor=#B3B3B3;strokeWidth=3;entryX=0;entryY=0;entryDx=0;entryDy=0;" parent="G-pxlVZhkgJDdegGtomH-1" edge="1">
          <mxGeometry width="50" height="50" relative="1" as="geometry">
            <mxPoint x="54.9" y="120" as="sourcePoint"/>
            <mxPoint x="122.47359312880727" y="207.57359312880726" as="targetPoint"/>
          </mxGeometry>
        </mxCell>
        <mxCell id="G-pxlVZhkgJDdegGtomH-20" value="&lt;br&gt;&lt;br&gt;A" style="whiteSpace=wrap;html=1;rounded=0;shadow=0;strokeWidth=1;fillColor=#6d8764;fontSize=24;align=right;strokeColor=#3A5431;" parent="G-pxlVZhkgJDdegGtomH-1" vertex="1">
          <mxGeometry x="154.9" y="329.78999999999996" width="20" height="20" as="geometry"/>
        </mxCell>
        <mxCell id="G-pxlVZhkgJDdegGtomH-21" value="&lt;br&gt;&lt;br&gt;B" style="whiteSpace=wrap;html=1;rounded=0;shadow=0;strokeWidth=1;fillColor=#e51400;fontSize=24;align=right;strokeColor=#B20000;" parent="G-pxlVZhkgJDdegGtomH-1" vertex="1">
          <mxGeometry x="664.9" y="189.79" width="20" height="20" as="geometry"/>
        </mxCell>
        <mxCell id="G-pxlVZhkgJDdegGtomH-22" value="" style="ellipse;whiteSpace=wrap;html=1;aspect=fixed;fillColor=#d5e8d4;strokeColor=#82b366;rotation=5;" parent="G-pxlVZhkgJDdegGtomH-1" vertex="1">
          <mxGeometry x="224.89999999999998" y="240" width="20" height="20" as="geometry"/>
        </mxCell>
        <mxCell id="G-pxlVZhkgJDdegGtomH-23" value="&lt;div&gt;&lt;font style=&quot;font-size: 16px&quot;&gt;`c_2^A`&lt;/font&gt;&lt;/div&gt;" style="text;html=1;strokeColor=none;fillColor=none;align=center;verticalAlign=middle;whiteSpace=wrap;rounded=0;fontColor=#000000;" parent="G-pxlVZhkgJDdegGtomH-1" vertex="1">
          <mxGeometry x="134.90000000000003" y="270" width="40" height="20" as="geometry"/>
        </mxCell>
        <mxCell id="G-pxlVZhkgJDdegGtomH-24" value="&lt;div&gt;&lt;font style=&quot;font-size: 16px&quot;&gt;`c_1^A`&lt;/font&gt;&lt;/div&gt;" style="text;html=1;strokeColor=none;fillColor=none;align=center;verticalAlign=middle;whiteSpace=wrap;rounded=0;fontColor=#000000;" parent="G-pxlVZhkgJDdegGtomH-1" vertex="1">
          <mxGeometry x="194.9" y="309.78999999999996" width="40" height="20" as="geometry"/>
        </mxCell>
        <mxCell id="G-pxlVZhkgJDdegGtomH-25" value="&lt;div&gt;&lt;font style=&quot;font-size: 16px&quot;&gt;`c_3^A`&lt;/font&gt;&lt;/div&gt;" style="text;html=1;strokeColor=none;fillColor=none;align=center;verticalAlign=middle;whiteSpace=wrap;rounded=0;fontColor=#000000;" parent="G-pxlVZhkgJDdegGtomH-1" vertex="1">
          <mxGeometry x="224.9" y="220" width="40" height="20" as="geometry"/>
        </mxCell>
        <mxCell id="G-pxlVZhkgJDdegGtomH-26" value="&lt;div&gt;&lt;font style=&quot;font-size: 16px&quot;&gt;`c_1^B`&lt;/font&gt;&lt;/div&gt;" style="text;html=1;strokeColor=none;fillColor=none;align=center;verticalAlign=middle;whiteSpace=wrap;rounded=0;fontColor=#000000;" parent="G-pxlVZhkgJDdegGtomH-1" vertex="1">
          <mxGeometry x="634.9" y="130" width="40" height="20" as="geometry"/>
        </mxCell>
        <mxCell id="G-pxlVZhkgJDdegGtomH-27" value="" style="ellipse;whiteSpace=wrap;html=1;aspect=fixed;fillColor=#d5e8d4;strokeColor=#82b366;rotation=5;" parent="G-pxlVZhkgJDdegGtomH-1" vertex="1">
          <mxGeometry x="184.48000000000002" y="319.58" width="20.42" height="20.42" as="geometry"/>
        </mxCell>
        <mxCell id="G-pxlVZhkgJDdegGtomH-29" value="" style="ellipse;whiteSpace=wrap;html=1;aspect=fixed;fillColor=#d5e8d4;strokeColor=#82b366;rotation=5;" parent="G-pxlVZhkgJDdegGtomH-1" vertex="1">
          <mxGeometry x="154.48000000000002" y="299.37" width="20.42" height="20.42" as="geometry"/>
        </mxCell>
        <mxCell id="G-pxlVZhkgJDdegGtomH-30" value="" style="ellipse;whiteSpace=wrap;html=1;aspect=fixed;fillColor=#f8cecc;strokeColor=#b85450;" parent="G-pxlVZhkgJDdegGtomH-1" vertex="1">
          <mxGeometry x="644.9" y="160" width="20" height="20" as="geometry"/>
        </mxCell>
        <mxCell id="G-pxlVZhkgJDdegGtomH-31" value="" style="endArrow=none;html=1;strokeColor=#B3B3B3;strokeWidth=3;" parent="G-pxlVZhkgJDdegGtomH-1" target="G-pxlVZhkgJDdegGtomH-30" edge="1">
          <mxGeometry width="50" height="50" relative="1" as="geometry">
            <mxPoint x="734.9" y="120" as="sourcePoint"/>
            <mxPoint x="534.9" y="240" as="targetPoint"/>
          </mxGeometry>
        </mxCell>
        <mxCell id="G-pxlVZhkgJDdegGtomH-32" value="" style="triangle;whiteSpace=wrap;html=1;strokeColor=#666666;strokeWidth=1;fillColor=#f5f5f5;fontColor=#333333;rotation=60;" parent="G-pxlVZhkgJDdegGtomH-1" vertex="1">
          <mxGeometry x="204.9" y="380" width="50" height="30" as="geometry"/>
        </mxCell>
        <mxCell id="G-pxlVZhkgJDdegGtomH-46" value="&lt;b&gt;Legend&lt;/b&gt;" style="text;html=1;strokeColor=none;align=center;verticalAlign=middle;whiteSpace=wrap;rounded=0;fillColor=#a8ca40;fontColor=#FFFFFF;" parent="G-pxlVZhkgJDdegGtomH-1" vertex="1">
          <mxGeometry x="600.01" y="374.69" width="199.89" height="20" as="geometry"/>
        </mxCell>
        <mxCell id="G-pxlVZhkgJDdegGtomH-47" value="Route with best candidate" style="text;html=1;strokeColor=none;fillColor=none;align=left;verticalAlign=middle;whiteSpace=wrap;rounded=0;" parent="G-pxlVZhkgJDdegGtomH-1" vertex="1">
          <mxGeometry x="650.43" y="404.69" width="149.47" height="20" as="geometry"/>
        </mxCell>
        <mxCell id="G-pxlVZhkgJDdegGtomH-48" value="" style="curved=1;html=1;strokeColor=#d6b656;fontColor=#000000;fontSize=11;rounded=1;strokeWidth=12;fillColor=#fff2cc;endArrow=none;" parent="G-pxlVZhkgJDdegGtomH-1" edge="1">
          <mxGeometry width="50" height="50" relative="1" as="geometry">
            <mxPoint x="599.8" y="434.69" as="sourcePoint"/>
            <mxPoint x="639.8" y="434.69" as="targetPoint"/>
            <Array as="points"/>
          </mxGeometry>
        </mxCell>
        <mxCell id="G-pxlVZhkgJDdegGtomH-49" value="&lt;span style=&quot;text-align: right&quot;&gt;Shortest route&lt;/span&gt;" style="text;html=1;strokeColor=none;fillColor=none;align=left;verticalAlign=middle;whiteSpace=wrap;rounded=0;" parent="G-pxlVZhkgJDdegGtomH-1" vertex="1">
          <mxGeometry x="650.4300000000001" y="424.69" width="89.37" height="20" as="geometry"/>
        </mxCell>
        <mxCell id="G-pxlVZhkgJDdegGtomH-50" value="" style="endArrow=none;html=1;strokeWidth=12;fillColor=#e1d5e7;strokeColor=#9673a6;" parent="G-pxlVZhkgJDdegGtomH-1" edge="1">
          <mxGeometry width="50" height="50" relative="1" as="geometry">
            <mxPoint x="639.8" y="414.69" as="sourcePoint"/>
            <mxPoint x="599.8" y="414.69" as="targetPoint"/>
          </mxGeometry>
        </mxCell>
        <mxCell id="G-pxlVZhkgJDdegGtomH-51" value="&lt;div style=&quot;text-align: right&quot;&gt;&lt;span&gt;Actual route (most realistic)&lt;/span&gt;&lt;/div&gt;" style="text;html=1;strokeColor=none;fillColor=none;align=left;verticalAlign=middle;whiteSpace=wrap;rounded=0;" parent="G-pxlVZhkgJDdegGtomH-1" vertex="1">
          <mxGeometry x="650.43" y="444.69" width="149.47" height="20" as="geometry"/>
        </mxCell>
        <mxCell id="G-pxlVZhkgJDdegGtomH-53" value="" style="curved=1;html=1;strokeColor=#b85450;fontColor=#000000;fontSize=11;rounded=1;strokeWidth=12;fillColor=#f8cecc;endArrow=none;" parent="G-pxlVZhkgJDdegGtomH-1" edge="1">
          <mxGeometry width="50" height="50" relative="1" as="geometry">
            <mxPoint x="599.8000000000001" y="454.69" as="sourcePoint"/>
            <mxPoint x="639.8000000000001" y="454.69" as="targetPoint"/>
            <Array as="points"/>
          </mxGeometry>
        </mxCell>
      </root>
    </mxGraphModel>
  </diagram>
</mxfile>
